<?xml version="1.0" encoding="UTF-8" standalone="no"?>
<!-- Created with Inkscape (http://www.inkscape.org/) -->

<svg
   width="27.38179mm"
   height="27.381792mm"
   viewBox="0 0 27.38179 27.381792"
   version="1.1"
   id="svg1"
   sodipodi:docname="icone_tela_capturas.svg"
   inkscape:version="1.3.2 (091e20e, 2023-11-25, custom)"
   xmlns:inkscape="http://www.inkscape.org/namespaces/inkscape"
   xmlns:sodipodi="http://sodipodi.sourceforge.net/DTD/sodipodi-0.dtd"
   xmlns="http://www.w3.org/2000/svg"
   xmlns:svg="http://www.w3.org/2000/svg">
  <sodipodi:namedview
     id="namedview1"
     pagecolor="#ffffff"
     bordercolor="#000000"
     borderopacity="0.25"
     inkscape:showpageshadow="2"
     inkscape:pageopacity="0.0"
     inkscape:pagecheckerboard="0"
     inkscape:deskcolor="#d1d1d1"
     inkscape:document-units="mm"
     inkscape:zoom="2.8970538"
     inkscape:cx="16.568556"
     inkscape:cy="45.736119"
     inkscape:window-width="1920"
     inkscape:window-height="1009"
     inkscape:window-x="-8"
     inkscape:window-y="-8"
     inkscape:window-maximized="1"
     inkscape:current-layer="layer1" />
  <defs
     id="defs1" />
  <g
     inkscape:label="Layer 1"
     inkscape:groupmode="layer"
     id="layer1"
     transform="translate(-91.309153,-40.101428)">
    <path
       id="rect2"
       style="fill:#4d4d4d;stroke-width:0.0129342"
       d="m 97.624279,44.850506 c -0.867598,0 -1.566046,0.698448 -1.566046,1.566046 0,0.867597 0.698448,1.566045 1.566046,1.566045 h 14.751541 c 0.8676,0 1.56605,-0.698448 1.56605,-1.566045 0,-0.867598 -0.69845,-1.566046 -1.56605,-1.566046 z m 0,7.375603 c -0.867598,0 -1.566046,0.698785 -1.566046,1.566383 0,0.867598 0.698448,1.566047 1.566046,1.566047 h 14.751541 c 0.8676,0 1.56605,-0.698449 1.56605,-1.566047 0,-0.867598 -0.69845,-1.566383 -1.56605,-1.566383 z m 0,7.375941 c -0.867598,0 -1.566046,0.698447 -1.566046,1.566046 0,0.867598 0.698448,1.566045 1.566046,1.566045 h 14.751541 c 0.8676,0 1.56605,-0.698447 1.56605,-1.566045 0,-0.867599 -0.69845,-1.566046 -1.56605,-1.566046 z" />
  </g>
</svg>
