<?xml version="1.0" encoding="UTF-8" standalone="no"?>
<!-- Created with Inkscape (http://www.inkscape.org/) -->

<svg
   width="27.381273mm"
   height="27.381275mm"
   viewBox="0 0 27.381273 27.381275"
   version="1.1"
   id="svg1"
   sodipodi:docname="icone_mais_branco.svg"
   inkscape:version="1.3.2 (091e20e, 2023-11-25, custom)"
   xmlns:inkscape="http://www.inkscape.org/namespaces/inkscape"
   xmlns:sodipodi="http://sodipodi.sourceforge.net/DTD/sodipodi-0.dtd"
   xmlns="http://www.w3.org/2000/svg"
   xmlns:svg="http://www.w3.org/2000/svg">
  <sodipodi:namedview
     id="namedview1"
     pagecolor="#ffffff"
     bordercolor="#000000"
     borderopacity="0.25"
     inkscape:showpageshadow="2"
     inkscape:pageopacity="0.0"
     inkscape:pagecheckerboard="0"
     inkscape:deskcolor="#d1d1d1"
     inkscape:document-units="mm"
     inkscape:zoom="2.8970538"
     inkscape:cx="60.061018"
     inkscape:cy="83.53314"
     inkscape:window-width="1350"
     inkscape:window-height="1032"
     inkscape:window-x="2137"
     inkscape:window-y="68"
     inkscape:window-maximized="0"
     inkscape:current-layer="layer1" />
  <defs
     id="defs1" />
  <g
     inkscape:label="Layer 1"
     inkscape:groupmode="layer"
     id="layer1"
     transform="translate(-144.55396,-40.284362)">
    <path
       id="rect4"
       style="fill:#ffffff;fill-opacity:1;stroke-width:0.01703"
       d="m 158.2446,42.201817 c -1.14234,0 -2.06197,0.919624 -2.06197,2.061961 v 7.649259 h -7.64926 c -1.14232,0 -2.06195,0.919624 -2.06195,2.061962 0,1.142339 0.91963,2.061963 2.06195,2.061963 h 7.64926 v 7.649257 c 0,1.142339 0.91963,2.061963 2.06197,2.061963 1.14232,0 2.06197,-0.919624 2.06197,-2.061963 v -7.649257 h 7.64926 c 1.14232,0 2.06195,-0.919624 2.06195,-2.061963 0,-1.142338 -0.91963,-2.061962 -2.06195,-2.061962 h -7.64926 v -7.649259 c 0,-1.142337 -0.91965,-2.061961 -2.06197,-2.061961 z" />
  </g>
</svg>
