<?xml version="1.0" encoding="UTF-8" standalone="no"?>
<svg
   height="24px"
   viewBox="0 -960 960 960"
   width="24px"
   fill="#e8eaed"
   version="1.1"
   id="svg1"
   sodipodi:docname="icone_microchip.svg"
   inkscape:version="1.3.2 (091e20e, 2023-11-25, custom)"
   xmlns:inkscape="http://www.inkscape.org/namespaces/inkscape"
   xmlns:sodipodi="http://sodipodi.sourceforge.net/DTD/sodipodi-0.dtd"
   xmlns="http://www.w3.org/2000/svg"
   xmlns:svg="http://www.w3.org/2000/svg">
  <defs
     id="defs1" />
  <sodipodi:namedview
     id="namedview1"
     pagecolor="#ffffff"
     bordercolor="#000000"
     borderopacity="0.25"
     inkscape:showpageshadow="2"
     inkscape:pageopacity="0.0"
     inkscape:pagecheckerboard="0"
     inkscape:deskcolor="#d1d1d1"
     inkscape:zoom="33.583333"
     inkscape:cx="12"
     inkscape:cy="11.985112"
     inkscape:window-width="1920"
     inkscape:window-height="1009"
     inkscape:window-x="-8"
     inkscape:window-y="-8"
     inkscape:window-maximized="1"
     inkscape:current-layer="svg1" />
  <path
     d="M360-360v-240h240v240H360Zm80-80h80v-80h-80v80Zm-80 320v-80h-80q-33 0-56.5-23.5T200-280v-80h-80v-80h80v-80h-80v-80h80v-80q0-33 23.5-56.5T280-760h80v-80h80v80h80v-80h80v80h80q33 0 56.5 23.5T760-680v80h80v80h-80v80h80v80h-80v80q0 33-23.5 56.5T680-200h-80v80h-80v-80h-80v80h-80Zm320-160v-400H280v400h400ZM480-480Z"
     id="path1"
     style="fill:#505057;fill-opacity:1" />
</svg>
