<?xml version="1.0" encoding="UTF-8" standalone="no"?>
<svg
   height="24px"
   viewBox="0 -960 960 960"
   width="24px"
   fill="#e8eaed"
   version="1.1"
   id="svg1"
   sodipodi:docname="icone_sincronizacao.svg"
   inkscape:version="1.3.2 (091e20e, 2023-11-25, custom)"
   xmlns:inkscape="http://www.inkscape.org/namespaces/inkscape"
   xmlns:sodipodi="http://sodipodi.sourceforge.net/DTD/sodipodi-0.dtd"
   xmlns="http://www.w3.org/2000/svg"
   xmlns:svg="http://www.w3.org/2000/svg">
  <defs
     id="defs1" />
  <sodipodi:namedview
     id="namedview1"
     pagecolor="#ffffff"
     bordercolor="#000000"
     borderopacity="0.25"
     inkscape:showpageshadow="2"
     inkscape:pageopacity="0.0"
     inkscape:pagecheckerboard="0"
     inkscape:deskcolor="#d1d1d1"
     inkscape:zoom="33.583333"
     inkscape:cx="12.014888"
     inkscape:cy="12"
     inkscape:window-width="1397"
     inkscape:window-height="1000"
     inkscape:window-x="514"
     inkscape:window-y="0"
     inkscape:window-maximized="0"
     inkscape:current-layer="svg1" />
  <path
     d="M160-160v-80h110l-16-14q-52-46-73-105t-21-119q0-111 66.5-197.5T400-790v84q-72 26-116 88.5T240-478q0 45 17 87.5t53 78.5l10 10v-98h80v240H160Zm400-10v-84q72-26 116-88.5T720-482q0-45-17-87.5T650-648l-10-10v98h-80v-240h240v80H690l16 14q49 49 71.5 106.5T800-482q0 111-66.5 197.5T560-170Z"
     id="path1"
     style="fill:#505057;fill-opacity:1" />
</svg>
