<?xml version="1.0" encoding="UTF-8" standalone="no"?>
<svg
   height="24px"
   viewBox="0 -960 960 960"
   width="24px"
   fill="#e8eaed"
   version="1.1"
   id="svg1"
   sodipodi:docname="icone_dessincronizado.svg"
   inkscape:version="1.3.2 (091e20e, 2023-11-25, custom)"
   xmlns:inkscape="http://www.inkscape.org/namespaces/inkscape"
   xmlns:sodipodi="http://sodipodi.sourceforge.net/DTD/sodipodi-0.dtd"
   xmlns="http://www.w3.org/2000/svg"
   xmlns:svg="http://www.w3.org/2000/svg">
  <defs
     id="defs1" />
  <sodipodi:namedview
     id="namedview1"
     pagecolor="#ffffff"
     bordercolor="#000000"
     borderopacity="0.25"
     inkscape:showpageshadow="2"
     inkscape:pageopacity="0.0"
     inkscape:pagecheckerboard="0"
     inkscape:deskcolor="#d1d1d1"
     inkscape:zoom="33.875"
     inkscape:cx="12"
     inkscape:cy="12"
     inkscape:window-width="1920"
     inkscape:window-height="1009"
     inkscape:window-x="1912"
     inkscape:window-y="-8"
     inkscape:window-maximized="1"
     inkscape:current-layer="svg1" />
  <path
     d="M792-56 643-205q-19 11-39.5 20T560-170v-84q6-2 12-4.5t12-5.5L264-584q-11 25-17.5 51.5T240-478q0 45 17 87.5t53 78.5l10 10v-98h80v240H160v-80h110l-16-14q-49-49-71.5-106.5T160-478q0-45 11.5-86.5T205-643L56-792l57-57 736 736-57 57Zm-35-263-60-60q11-24 17-50t6-53q0-45-17-87.5T650-648l-10-10v98h-80v-240h240v80H690l16 14q49 49 71.5 106.5T800-482q0 45-11.5 85.5T757-319ZM379-697l-60-60q19-11 39-19t42-14v84q-5 2-10.5 4t-10.5 5Z"
     id="path1"
     style="fill:#f29564;fill-opacity:1" />
</svg>
