<?xml version="1.0" encoding="UTF-8" standalone="no"?>
<!-- Created with Inkscape (http://www.inkscape.org/) -->

<svg
   width="27.381273mm"
   height="27.381275mm"
   viewBox="0 0 27.381273 27.381275"
   version="1.1"
   id="svg1"
   sodipodi:docname="icone_tela_cadastro.svg"
   inkscape:version="1.3.2 (091e20e, 2023-11-25, custom)"
   xmlns:inkscape="http://www.inkscape.org/namespaces/inkscape"
   xmlns:sodipodi="http://sodipodi.sourceforge.net/DTD/sodipodi-0.dtd"
   xmlns="http://www.w3.org/2000/svg"
   xmlns:svg="http://www.w3.org/2000/svg">
  <sodipodi:namedview
     id="namedview1"
     pagecolor="#ffffff"
     bordercolor="#000000"
     borderopacity="0.25"
     inkscape:showpageshadow="2"
     inkscape:pageopacity="0.0"
     inkscape:pagecheckerboard="0"
     inkscape:deskcolor="#d1d1d1"
     inkscape:document-units="mm"
     inkscape:zoom="2.8970538"
     inkscape:cx="60.061018"
     inkscape:cy="83.705729"
     inkscape:window-width="1920"
     inkscape:window-height="1009"
     inkscape:window-x="1912"
     inkscape:window-y="-8"
     inkscape:window-maximized="1"
     inkscape:current-layer="layer1" />
  <defs
     id="defs1" />
  <g
     inkscape:label="Layer 1"
     inkscape:groupmode="layer"
     id="layer1"
     transform="translate(-144.55396,-40.284362)">
    <path
       id="rect4"
       style="fill:#125fa7;stroke-width:0.0129347;fill-opacity:1"
       d="m 158.2446,45.032998 c -0.86763,0 -1.56611,0.698476 -1.56611,1.566107 v 5.809787 h -5.80979 c -0.86762,0 -1.5661,0.698475 -1.5661,1.566107 0,0.867633 0.69848,1.566108 1.5661,1.566108 h 5.80979 v 5.809786 c 0,0.867632 0.69848,1.566108 1.56611,1.566108 0.86762,0 1.56611,-0.698476 1.56611,-1.566108 v -5.809786 h 5.80979 c 0.86762,0 1.5661,-0.698475 1.5661,-1.566108 0,-0.867632 -0.69848,-1.566107 -1.5661,-1.566107 h -5.80979 v -5.809787 c 0,-0.867631 -0.69849,-1.566107 -1.56611,-1.566107 z" />
  </g>
</svg>
