<?xml version="1.0" encoding="UTF-8" standalone="no"?>
<!-- Created with Inkscape (http://www.inkscape.org/) -->

<svg
   width="80"
   height="70"
   viewBox="0 0 21.166666 18.520834"
   version="1.1"
   id="svg1"
   xml:space="preserve"
   inkscape:version="1.3.2 (091e20e, 2023-11-25, custom)"
   sodipodi:docname="icone_chip.svg"
   xmlns:inkscape="http://www.inkscape.org/namespaces/inkscape"
   xmlns:sodipodi="http://sodipodi.sourceforge.net/DTD/sodipodi-0.dtd"
   xmlns="http://www.w3.org/2000/svg"
   xmlns:svg="http://www.w3.org/2000/svg"><sodipodi:namedview
     id="namedview1"
     pagecolor="#ffffff"
     bordercolor="#000000"
     borderopacity="0.25"
     inkscape:showpageshadow="2"
     inkscape:pageopacity="0.0"
     inkscape:pagecheckerboard="0"
     inkscape:deskcolor="#d1d1d1"
     inkscape:document-units="mm"
     inkscape:zoom="4.2736508"
     inkscape:cx="45.745432"
     inkscape:cy="51.829223"
     inkscape:window-width="1920"
     inkscape:window-height="1009"
     inkscape:window-x="-8"
     inkscape:window-y="-8"
     inkscape:window-maximized="1"
     inkscape:current-layer="layer1" /><defs
     id="defs1" /><g
     inkscape:label="Layer 1"
     inkscape:groupmode="layer"
     id="layer1"><path
       style="fill:#f9f9f9;stroke-width:0.113704"
       d="M 4.4160766,15.741986 C 4.0800995,15.654057 3.7613828,15.468059 3.497519,15.205917 3.2230668,14.933258 3.0752109,14.69339 2.9669694,14.345208 L 2.89682,14.119578 V 9.2609824 4.4023886 L 2.9669694,4.1767564 C 3.0752148,3.8285758 3.2230668,3.5887083 3.497519,3.3160497 3.6888706,3.1259569 3.7991477,3.0446266 3.9968596,2.9478178 4.4726377,2.7148549 3.9256838,2.7327157 10.583334,2.7327157 c 6.658412,0 6.109483,-0.018012 6.588435,0.2154856 0.201809,0.098368 0.307009,0.1759931 0.499035,0.3682338 0.272105,0.2724166 0.421855,0.5160064 0.528894,0.8603213 l 0.07015,0.2256322 v 4.8585938 4.8585956 l -0.07015,0.22563 c -0.107045,0.344317 -0.256789,0.587907 -0.528894,0.860325 -0.192029,0.192243 -0.297226,0.269872 -0.499035,0.368232 -0.479184,0.233552 0.07249,0.215712 -6.602277,0.213504 -5.1092784,-0.0017 -6.0122316,-0.0083 -6.1534154,-0.04528 z M 16.722676,15.285783 c 0.532912,-0.181242 0.939465,-0.623175 1.065651,-1.158375 0.06678,-0.283208 0.06678,-9.4496434 0,-9.7328497 C 17.660074,3.8505773 17.243846,3.4045847 16.706713,3.2355871 L 16.494875,3.1689432 H 10.583334 4.6717925 L 4.4599539,3.2355871 C 3.9228213,3.4045885 3.5065965,3.8505773 3.3783406,4.3945583 c -0.066779,0.2832063 -0.066779,9.4496417 0,9.7328497 0.1530813,0.649296 0.6949493,1.13444 1.3536193,1.21193 0.099278,0.01162 2.7933158,0.01954 5.9867521,0.01743 l 5.806248,-0.0037 z M 4.5009628,14.815032 C 4.1704919,14.679111 3.9446795,14.433942 3.8399106,14.097318 3.7871921,13.92791 3.7843063,13.739065 3.7843063,10.444649 c 0,-3.5011375 0.00167,-3.5603674 0.1022802,-3.6275439 C 3.904792,6.8049035 4.9553358,6.7944644 6.221127,6.7938253 7.5174415,6.7931436 8.5751222,6.7804617 8.642903,6.7648514 8.7932341,6.7301253 8.9872864,6.5340035 8.9923355,6.411674 9.0024066,6.1686903 8.9627999,6.0853807 8.7472884,5.8956752 8.393679,5.5844151 8.3278816,5.3822466 8.3273761,4.6054577 L 8.3270236,4.0564217 H 6.6287447 c -1.0946554,0 -1.7517256,0.011427 -1.8486545,0.032247 -0.2123209,0.045533 -0.3831623,0.1790145 -0.4712286,0.3681582 -0.070905,0.1522679 -0.072706,0.175296 -0.072996,0.9267598 -2.847e-4,0.7338143 -0.00329,0.7743932 -0.062654,0.8498783 -0.086224,0.1096205 -0.2403284,0.1096205 -0.3265587,0 -0.0594,-0.075514 -0.062344,-0.1157987 -0.062344,-0.8519409 0,-0.6172563 0.00968,-0.8055362 0.04778,-0.9360718 C 3.9327026,4.1013603 4.1909305,3.8216247 4.5224356,3.6975928 4.688958,3.6352874 4.6938968,3.6352486 10.583332,3.6352486 h 5.894242 l 0.167568,0.062693 c 0.223331,0.083552 0.397318,0.2205269 0.53341,0.4199142 0.216099,0.3166076 0.203809,0.00659 0.203809,5.1431325 0,5.1366287 0.0122,4.8265247 -0.203809,5.1431317 -0.136096,0.199389 -0.310079,0.336357 -0.53341,0.419916 l -0.167568,0.06269 -5.902891,-6.82e-4 -5.9028924,-6.81e-4 z M 8.3273761,13.916508 C 8.3278777,13.13972 8.3936713,12.937553 8.7472884,12.626293 8.9628057,12.436587 9.0023698,12.353276 8.9923355,12.110292 8.9869126,11.977934 8.790757,11.788054 8.6268589,11.756431 8.5529522,11.742099 7.5346767,11.729917 6.3640268,11.7292 l -2.128456,-0.0013 v 1.092678 1.092678 l 0.082738,0.163152 c 0.096722,0.190752 0.2596437,0.317203 0.458783,0.35611 0.074468,0.01453 0.9036543,0.02793 1.8426564,0.02975 l 1.707277,0.0033 z m 4.0610089,0.01859 c 0,-0.3254 -0.01394,-0.578377 -0.03626,-0.654329 -0.02597,-0.08868 -0.09876,-0.185348 -0.256506,-0.340657 -0.281105,-0.276751 -0.368494,-0.453631 -0.368494,-0.745866 0,-0.364372 0.194662,-0.664502 0.530804,-0.818395 l 0.160537,-0.0735 V 9.2610405 7.219728 l -0.160537,-0.0735 c -0.33615,-0.153949 -0.530811,-0.4540805 -0.530811,-0.8184524 0,-0.2922335 0.08739,-0.4691157 0.368493,-0.7458648 0.157749,-0.1553086 0.230532,-0.2519644 0.256506,-0.3406563 0.02225,-0.07596 0.03626,-0.3289311 0.03626,-0.6543316 V 4.0564198 h -1.80505 -1.8050524 v 0.5305031 c 0,0.3254005 0.013945,0.5783778 0.036256,0.6543316 0.025972,0.088684 0.098755,0.1853477 0.2565069,0.3406563 0.2811048,0.2767491 0.3684933,0.4536313 0.3684933,0.7458648 0,0.3635177 -0.1941445,0.6615073 -0.5334063,0.8187081 L 8.748182,7.2196738 V 9.2609863 11.3023 l 0.1605378,0.0735 c 0.3361418,0.153895 0.5308033,0.454023 0.5308033,0.818394 0,0.292236 -0.087387,0.469116 -0.3684933,0.745867 -0.1577489,0.155309 -0.230533,0.251965 -0.2565069,0.340656 -0.022253,0.07596 -0.036256,0.32893 -0.036256,0.65433 v 0.530503 h 1.8050521 1.80505 z m 3.974527,0.500207 c 0.219512,-0.04104 0.381353,-0.160461 0.484146,-0.357224 l 0.08404,-0.160867 V 12.822578 11.72794 l -2.128454,0.0013 c -1.170652,6.81e-4 -2.188925,0.01298 -2.262832,0.02723 -0.163908,0.03163 -0.36001,0.221504 -0.365476,0.353862 -0.01007,0.242981 0.02954,0.326293 0.245047,0.515998 0.353609,0.31126 0.419407,0.513427 0.419912,1.290218 l 3.41e-4,0.549034 h 1.680608 c 1.000953,0 1.74614,-0.0122 1.842654,-0.03029 z M 8.3119769,10.389138 V 9.4866127 l -2.038203,-0.00775 -2.0382031,-0.00775 v 0.9179863 0.917989 l 2.0382031,-0.0077 2.038203,-0.0077 z m 8.6191171,-2.27e-4 V 9.4711342 l -2.038201,0.00775 -2.038203,0.00775 -0.0079,0.8720758 c -0.0045,0.479642 -0.0014,0.889162 0.0066,0.910048 0.01162,0.03006 0.438198,0.03796 2.046196,0.03796 h 2.031626 z M 8.3119769,8.1328085 V 7.2302833 l -2.038203,-0.00775 -2.0382031,-0.00775 v 0.9179901 0.9179854 l 2.0382031,-0.00775 2.038203,-0.00775 z M 16.931094,8.1325819 V 7.2148028 l -2.038201,0.00775 -2.038203,0.00775 -0.0079,0.8720735 c -0.0045,0.4796409 -0.0014,0.8891625 0.0066,0.9100466 0.01162,0.030059 0.438198,0.03798 2.046196,0.03798 h 2.031626 z m -3.41e-4,-2.4290892 c -3.4e-4,-1.0897941 -3.4e-4,-1.0906579 -0.073,-1.2466986 -0.08806,-0.1891438 -0.25891,-0.3226232 -0.47123,-0.3681583 -0.09694,-0.020781 -0.754,-0.032247 -1.848655,-0.032247 h -1.698275 l -3.41e-4,0.5490359 c -4.55e-4,0.776789 -0.0663,0.9789574 -0.419912,1.2902176 -0.215517,0.1897054 -0.255079,0.2730151 -0.245046,0.5159987 0.0046,0.1147529 0.200196,0.319933 0.334954,0.3516203 0.0576,0.013557 1.076074,0.026011 2.26327,0.027715 l 2.158539,0.0031 z"
       id="path1" /></g></svg>
